<svg width="100" height="89" viewBox="0 0 100 89" xmlns="http://www.w3.org/2000/svg" xmlns:xlink="http://www.w3.org/1999/xlink"><title>Page 1</title><defs><path id="a" d="M99.554 31.469V.203H0v31.266h99.553z"/></defs><g fill="none" fill-rule="evenodd"><path fill="#FEFEFE" d="M9.428 0l1.129 19.245h4.819l-.844-14.434h70.496l-.85 14.434H89L90.127 0zm71.326 77.62l-28.67 4.07a2.494 2.494 0 0 0-.508.073l-.042.006v.003a2.384 2.384 0 0 0-1.757 2.29 2.385 2.385 0 0 0-1.754-2.29v-.003l-.044-.006a2.475 2.475 0 0 0-.508-.073l-28.672-4.07-1.305-22.299h-4.82l1.551 26.448h.026l31.073 4.437c1.06.07 1.97.677 2.457 1.555a2.387 2.387 0 0 0 1.996 1.084c.837 0 1.57-.436 1.999-1.084a3.037 3.037 0 0 1 2.455-1.555l31.075-4.437h.022L86.88 55.32h-4.818l-1.31 22.299z"/><g transform="translate(0 21.445)"><mask id="b" fill="#fff"><use xlink:href="#a"/></mask><path d="M87.287 26.661H60.612L58.617 5.014h30.019l-1.35 21.647zm-48.34 0H12.27L10.92 5.014h30.02l-1.993 21.647zM93.756.203H.001v4.811h6.096l1.65 26.455h35.576l.443-4.808L45.76 5.014h8.036l1.991 21.647.444 4.808h35.575l1.649-26.455h6.1V.203h-5.799z" fill="#FEFEFE" mask="url(#b)"/></g></g></svg>