<svg xmlns="http://www.w3.org/2000/svg" viewBox="0 0 512 512" width="512" height="512"><path d="M487.464 232.092c-4.15-5.321-11.825-6.267-17.147-2.12-5.32 4.15-6.269 11.826-2.12 17.147a14.425 14.425 0 0 1 0 17.763c-29.884 38.315-68.55 67.106-112.08 84.513 22.879-24.497 36.888-57.346 36.888-93.395 0-35.907-13.892-68.638-36.576-93.083 25.153 10.114 48.798 24.014 69.966 41.37a270.3 270.3 0 0 1 7.79 6.638c5.052 4.473 12.772 4.003 17.245-1.048 4.473-5.051 4.003-12.773-1.048-17.245a290.95 290.95 0 0 0-8.496-7.239c-52.22-42.815-118.237-66.394-185.886-66.394-91.043 0-175.408 41.221-231.463 113.094a38.828 38.828 0 0 0 0 47.818C80.592 351.784 164.957 393.005 256 393.005c91.041 0 175.407-41.221 231.464-113.094a38.83 38.83 0 0 0 0-47.819zm-443.66 32.79a14.425 14.425 0 0 1 0-17.763c29.877-38.308 68.535-67.095 112.057-84.504-22.855 24.485-36.866 57.321-36.866 93.385 0 36.051 14.01 68.9 36.865 93.386-43.521-17.409-82.18-46.196-112.056-84.504zm212.345 103.685l-.148.001-.148-.001c-62.007-.08-112.424-50.542-112.424-112.567s50.416-112.487 112.424-112.567l.148-.001.114.001c62.022.061 112.457 50.53 112.457 112.567 0 62.025-50.416 112.487-112.423 112.567z" fill="#FFF"/><path d="M256.001 204.16c-28.587 0-51.84 23.253-51.84 51.84s23.253 51.84 51.84 51.84 51.84-23.253 51.84-51.84-23.253-51.84-51.84-51.84zm0 79.246c-15.108 0-27.406-12.298-27.406-27.406s12.298-27.406 27.406-27.406 27.406 12.298 27.406 27.406-12.298 27.406-27.406 27.406zm0-283.406c-6.748 0-12.217 5.469-12.217 12.217V58.03c0 6.748 5.469 12.217 12.217 12.217s12.217-5.469 12.217-12.217V12.217c0-6.748-5.47-12.217-12.217-12.217zm0 441.753c-6.748 0-12.217 5.469-12.217 12.217v45.813c0 6.748 5.469 12.217 12.217 12.217s12.217-5.469 12.217-12.217V453.97c0-6.748-5.471-12.217-12.217-12.217zM437.021 74.98c-4.771-4.77-12.505-4.77-17.279 0l-22.795 22.795c-4.771 4.771-4.771 12.506 0 17.279a12.18 12.18 0 0 0 8.639 3.578c3.126 0 6.252-1.193 8.639-3.578l22.797-22.795c4.77-4.771 4.77-12.506-.001-17.279zM115.055 396.946c-4.77-4.769-12.505-4.77-17.277 0l-22.797 22.795c-4.771 4.771-4.771 12.506 0 17.279 2.386 2.385 5.513 3.578 8.639 3.578s6.252-1.193 8.639-3.578l22.797-22.795c4.77-4.772 4.77-12.506-.001-17.279zm0-299.17L92.258 74.98c-4.771-4.77-12.506-4.77-17.277 0-4.771 4.773-4.77 12.507 0 17.279l22.797 22.795c2.385 2.385 5.513 3.578 8.639 3.578s6.254-1.193 8.639-3.578c4.77-4.773 4.769-12.507-.001-17.278zm321.964 321.965l-22.795-22.795c-4.773-4.77-12.506-4.77-17.279 0-4.771 4.773-4.771 12.507 0 17.279l22.797 22.795a12.183 12.183 0 0 0 8.639 3.578c3.126 0 6.252-1.193 8.639-3.578 4.771-4.773 4.771-12.508-.001-17.279z" fill="#FFF"/></svg>