<svg xmlns="http://www.w3.org/2000/svg" viewBox="0 0 512 512" width="512" height="512"><path d="M330.405 265.891a8.256 8.256 0 0 0-6.669-5.626l-41.68-6.057-18.641-37.771a8.267 8.267 0 0 0-14.826 0l-18.641 37.771-41.681 6.057a8.265 8.265 0 0 0-4.583 14.1l30.161 29.4-7.12 41.514a8.27 8.27 0 0 0 3.289 8.085 8.269 8.269 0 0 0 8.705.629L256 334.392l37.281 19.601a8.26 8.26 0 0 0 3.846.949 8.263 8.263 0 0 0 8.148-9.664l-7.12-41.514 30.161-29.399a8.271 8.271 0 0 0 2.089-8.474zm-46.902 29.069a8.262 8.262 0 0 0-2.376 7.318l5.024 29.288-26.302-13.828a8.272 8.272 0 0 0-7.693 0l-26.302 13.828 5.023-29.289a8.264 8.264 0 0 0-2.376-7.316l-21.279-20.741 29.407-4.273a8.262 8.262 0 0 0 6.224-4.522l13.152-26.647 13.152 26.647a8.268 8.268 0 0 0 6.224 4.522l29.406 4.273-21.284 20.74z" fill="#FFF"/><path d="M117.121 217.987c33.705 0 65.351-20.995 77.226-54.533a8.266 8.266 0 0 0-5.034-10.551c-20.5-7.259-42.59-6.136-62.245 3.143a186.29 186.29 0 0 1 16.411-18.778 8.266 8.266 0 1 0-11.691-11.69 203.656 203.656 0 0 0-12.075 13.207c-.905-24.555-12.766-48.449-34.287-63.764a8.267 8.267 0 0 0-11.528 1.942c-12.675 17.812-17.656 39.493-14.024 61.05 3.362 19.95 13.737 37.571 29.379 50.136a201.11 201.11 0 0 0-7.139 19.191 83.134 83.134 0 0 0-5.679-10.577c-11.708-18.462-29.904-31.26-51.236-36.037a8.269 8.269 0 0 0-9.873 6.261c-9.518 42.504 16.059 84.824 57.447 96.585a203.65 203.65 0 0 0 1.085 26.258 83.536 83.536 0 0 0-6.01-4.873C50.233 272.01 28.636 266.698 7.02 269.996a8.265 8.265 0 0 0-6.924 9.419c3.299 21.611 14.817 40.643 32.432 53.59 14.203 10.44 30.997 15.916 48.299 15.916 2.769 0 5.552-.154 8.338-.436a200.367 200.367 0 0 0 11.701 22.997c-25.575-8.2-54.672-3.717-76.953 14.529a8.268 8.268 0 0 0-1.158 11.634c13.85 16.913 33.458 27.421 55.212 29.587 2.765.276 5.519.411 8.26.411 16.883 0 33.172-5.19 47.004-14.972 9.305 9.122 19.464 17.358 30.241 24.474a8.262 8.262 0 0 0 11.454-2.343 8.269 8.269 0 0 0-2.343-11.454 186.938 186.938 0 0 1-29.104-23.775c-19.915-19.915-34.333-43.273-43.279-68.172 39.254-15.129 61.092-58.205 49.077-99.297a8.268 8.268 0 0 0-10.254-5.615c-20.983 6.135-38.32 20.075-48.819 39.25-.334.61-.636 1.23-.953 1.846a186.531 186.531 0 0 1 7.666-52.158 81.22 81.22 0 0 0 20.204 2.56zm-44.715 28.092c-27.378-10.17-44.775-37.605-42.299-66.706 13.329 4.931 24.624 14.034 32.364 26.241 7.74 12.207 11.16 26.307 9.935 40.465zM42.32 319.684c-11.646-8.561-19.953-20.455-23.956-34.09a73.79 73.79 0 0 1 1.052-.009c28.775 0 54.426 19.115 62.592 46.79-14.211.236-28.042-4.13-39.688-12.691zm37.286 91.096c-14.383-1.432-27.59-7.434-37.983-17.127 24.886-15.284 57.212-12.067 78.598 7.826-12.1 7.452-26.234 10.731-40.615 9.301zm25.099-137.102c6.942-12.678 17.63-22.487 30.614-28.264 4.338 28.881-11.263 57.377-37.932 69.282-2.129-14.05.378-28.34 7.318-41.018zm29.171-102.573c13.047-6.224 27.455-7.928 41.364-5.018-13.375 25.963-42.692 39.953-71.291 34.009 6.492-12.643 16.882-22.766 29.927-28.991zm-57.7-35.84c-2.402-14.254-.085-28.575 6.534-41.151 21.291 19.99 26.689 52.025 13.123 77.889-10.374-9.713-17.256-22.485-19.657-36.738zm354.997 213.656c17.301 0 34.098-5.477 48.299-15.916 17.614-12.948 29.134-31.979 32.432-53.591a8.267 8.267 0 0 0-6.924-9.419c-25.062-3.827-49.249 4.205-66.843 19.889a203.81 203.81 0 0 0 1.09-26.314c19.369-5.49 35.834-17.737 46.701-34.875 11.707-18.462 15.523-40.378 10.747-61.71-.996-4.456-5.417-7.256-9.872-6.261-21.332 4.776-39.529 17.575-51.235 36.037a83.153 83.153 0 0 0-5.68 10.578 200.958 200.958 0 0 0-7.139-19.192c33.464-26.915 40.574-75.749 15.356-111.186a8.256 8.256 0 0 0-5.361-3.358 8.246 8.246 0 0 0-6.167 1.416c-17.812 12.675-29.621 31.528-33.254 53.086a83.277 83.277 0 0 0-1.075 10.632 203.11 203.11 0 0 0-12.036-13.16 8.267 8.267 0 0 0-11.691 11.69 186.264 186.264 0 0 1 16.41 18.778c-19.653-9.278-41.744-10.403-62.243-3.143a8.266 8.266 0 0 0-5.034 10.551c11.875 33.541 43.517 54.533 77.226 54.533a81.24 81.24 0 0 0 20.203-2.559 186.573 186.573 0 0 1 7.667 52.239c-9.911-19.278-27.374-34.628-49.771-41.177a8.266 8.266 0 0 0-10.254 5.615c-6.136 20.983-3.734 43.099 6.765 62.274 9.39 17.15 24.261 30.094 42.308 37.03-8.947 24.897-23.365 48.252-43.277 68.166a186.886 186.886 0 0 1-29.104 23.775 8.268 8.268 0 0 0 9.111 13.797c10.782-7.119 20.941-15.355 30.246-24.478 14.195 10.022 30.677 14.933 47.078 14.933 23.71 0 47.236-10.223 63.396-29.955a8.268 8.268 0 0 0-1.158-11.634c-16.914-13.85-38.21-20.282-59.962-18.119a82.661 82.661 0 0 0-16.949 3.519 200.294 200.294 0 0 0 11.659-22.926c2.783.282 5.565.435 8.335.435zm50.728-169.542c1.223 14.158-2.195 28.257-9.935 40.464-7.741 12.207-19.036 21.31-32.364 26.241-2.476-29.1 14.921-56.536 42.299-66.705zm11.729 106.214c-8.268 28.009-34.446 47.221-63.634 46.776 8.268-28.009 34.429-47.257 63.634-46.776zM336.761 166.087c13.909-2.911 28.315-1.205 41.361 5.018 13.046 6.223 23.437 16.348 29.928 28.99-28.606 5.938-57.915-8.045-71.289-34.008zm79.401 5.915c-6.62-12.576-8.936-26.897-6.534-41.151 2.402-14.253 9.283-27.025 19.657-36.738 13.566 25.863 8.168 57.899-13.123 77.889zm13.601 212.341c14.389-1.432 28.515 1.848 40.615 9.302-21.385 19.89-53.713 23.109-78.598 7.826 10.393-9.694 23.6-15.695 37.983-17.128zM414.607 314.7c-12.985-5.776-23.672-15.585-30.614-28.263s-9.447-26.968-7.319-41.019c26.669 11.905 42.271 40.401 37.933 69.282z" fill="#FFF"/></svg>