<svg xmlns="http://www.w3.org/2000/svg" viewBox="0 0 512 512" width="512" height="512"><g fill="#FFF"><path d="M71.799 255.997l79.232-79.351c3.328-3.337 3.328-8.738-.009-12.066-3.328-3.328-8.738-3.337-12.075.009L53.69 249.974c-3.328 3.337-3.328 8.73.009 12.058l85.333 85.316a8.51 8.51 0 0 0 6.033 2.5 8.509 8.509 0 0 0 6.033-2.5c3.337-3.337 3.337-8.738 0-12.066l-79.299-79.285zm301.166-91.344c-3.328-3.337-8.73-3.337-12.066 0-3.328 3.336-3.328 8.738 0 12.066l79.3 79.283-79.232 79.352a8.542 8.542 0 0 0 .009 12.075 8.54 8.54 0 0 0 6.033 2.492 8.53 8.53 0 0 0 6.042-2.5l85.257-85.393a8.521 8.521 0 0 0-.009-12.058l-85.334-85.317zm-37.716-2.157c-4.523-1.382-9.276 1.212-10.624 5.717l-51.2 170.667c-1.348 4.514 1.212 9.276 5.726 10.633a8.538 8.538 0 0 0 10.624-5.726l51.2-170.667c1.348-4.514-1.212-9.276-5.726-10.624z"/><path d="M401.067 0H110.933C49.766 0 0 49.766 0 110.933v290.133C0 462.234 49.766 512 110.933 512h290.133C462.234 512 512 462.234 512 401.067V110.933C512 49.766 462.234 0 401.067 0zm93.866 401.067c0 51.755-42.112 93.867-93.867 93.867H110.933c-51.755 0-93.867-42.112-93.867-93.867V110.933c0-51.755 42.112-93.867 93.867-93.867h290.133c51.755 0 93.867 42.112 93.867 93.867v290.134z"/><path d="M247.467 332.8h-59.733c-4.719 0-8.533 3.823-8.533 8.533s3.814 8.533 8.533 8.533h59.733c4.719 0 8.533-3.823 8.533-8.533s-3.814-8.533-8.533-8.533z"/></g></svg>