<?xml version="1.0" encoding="UTF-8"?>
<svg width="100px" height="89px" viewBox="0 0 100 89" version="1.1" xmlns="http://www.w3.org/2000/svg" xmlns:xlink="http://www.w3.org/1999/xlink">
    <!-- Generator: Sketch 46 (44423) - http://www.bohemiancoding.com/sketch -->
    <title>Page 1</title>
    <desc>Created with Sketch.</desc>
    <defs>
        <polygon id="path-1" points="99.5535357 31.46876 99.5535357 0.20276 0.000901785714 0.20276 0.000901785714 31.46876 99.5535357 31.46876"></polygon>
    </defs>
    <g id="Welcome" stroke="none" stroke-width="1" fill="none" fill-rule="evenodd">
        <g id="Desktop-HD" transform="translate(-814.000000, -2136.000000)">
            <g id="Page-1" transform="translate(814.000000, 2135.000000)">
                <polygon id="Fill-1" fill="#FEFEFE" points="9.42762857 0.99946 10.5566643 20.24506 15.3758071 20.24506 14.5317357 5.81086 47.8923964 5.81086 49.7771286 5.81086 53.6043071 5.81086 85.0279321 5.81086 84.17845 20.24506 88.9993964 20.24506 90.1266286 0.99946"></polygon>
                <g id="Group-7" transform="translate(0.000000, 22.445120)">
                    <path d="M80.7538286,56.17466 L52.0842571,60.24446 C51.9093107,60.25166 51.739775,60.27686 51.57565,60.31826 L51.5341679,60.32366 L51.5341679,60.32726 C50.5241679,60.60626 49.7774893,61.52426 49.7774893,62.61686 C49.7756857,61.52426 49.0326143,60.60626 48.0226143,60.32726 L48.0226143,60.32366 L47.9793286,60.31826 C47.8152036,60.27686 47.6474714,60.25166 47.4707214,60.24446 L18.7993464,56.17466 L17.4935607,33.87626 L12.6744179,33.87626 L14.2254893,60.32366 L14.2507393,60.32366 L45.3244714,64.76066 C46.3831679,64.83086 47.2939714,65.43746 47.7809357,66.31586 C48.2065786,66.96386 48.9388286,67.39946 49.7774893,67.39946 C50.6143464,67.39946 51.3465964,66.96386 51.7758464,66.31586 C52.2628107,65.43746 53.1754179,64.83086 54.2305071,64.76066 L85.3060429,60.32366 L85.3276857,60.32366 L86.8805607,33.87626 L82.0632214,33.87626 L80.7538286,56.17466 Z" id="Fill-2" fill="#FEFEFE"></path>
                    <g id="Group-6">
                        <mask id="mask-2" fill="white">
                            <use xlink:href="#path-1"></use>
                        </mask>
                        <g id="Clip-5"></g>
                        <path d="M87.2865446,26.66096 L60.6117232,26.66096 L58.6169732,5.01416 L88.6356161,5.01416 L87.2865446,26.66096 Z M38.9472232,26.66096 L12.2687946,26.66096 L10.9197232,5.01416 L40.9401696,5.01416 L38.9472232,26.66096 Z M93.7559554,0.20276 L88.9350089,0.20276 L52.2305268,0.20276 L49.7776696,0.20276 L48.5043482,0.20276 L10.6203304,0.20276 L5.8011875,0.20276 L0.000901785714,0.20276 L0.000901785714,5.01416 L6.09697321,5.01416 L7.74724107,31.46876 L12.5681875,31.46876 L20.4678304,31.46876 L38.5035446,31.46876 L43.3226875,31.46876 L43.7663661,26.66096 L45.7593125,5.01416 L48.5025446,5.01416 L49.7776696,5.01416 L52.2305268,5.01416 L53.7960268,5.01416 L55.7871696,26.66096 L56.2308482,31.46876 L61.0535982,31.46876 L79.0839018,31.46876 L86.9853482,31.46876 L91.8062946,31.46876 L93.4547589,5.01416 L99.5544375,5.01416 L99.5544375,0.20276 L93.7559554,0.20276 Z" id="Fill-4" fill="#FEFEFE" mask="url(#mask-2)"></path>
                    </g>
                </g>
            </g>
        </g>
    </g>
</svg>