<?xml version="1.0" encoding="iso-8859-1"?>
<!-- Generator: Adobe Illustrator 19.0.0, SVG Export Plug-In . SVG Version: 6.00 Build 0)  -->
<svg xmlns="http://www.w3.org/2000/svg" xmlns:xlink="http://www.w3.org/1999/xlink" version="1.1" id="Layer_1" x="0px" y="0px" viewBox="0 0 512 512" style="enable-background:new 0 0 512 512;" xml:space="preserve" width="512px" height="512px">
<g>
	<g>
		<g>
			<path d="M71.799,255.997l79.232-79.351c3.328-3.337,3.328-8.738-0.009-12.066c-3.328-3.328-8.738-3.337-12.075,0.009     l-85.257,85.385c-3.328,3.337-3.328,8.73,0.009,12.058l85.333,85.316c1.664,1.664,3.849,2.5,6.033,2.5     c2.185,0,4.369-0.836,6.033-2.5c3.337-3.337,3.337-8.738,0-12.066L71.799,255.997z" fill="#FFFFFF"/>
			<path d="M372.965,164.653c-3.328-3.337-8.73-3.337-12.066,0c-3.328,3.336-3.328,8.738,0,12.066l79.3,79.283l-79.232,79.352     c-3.328,3.336-3.328,8.738,0.009,12.075c1.664,1.655,3.849,2.492,6.033,2.492c2.185,0,4.378-0.836,6.042-2.5l85.257-85.393     c3.328-3.328,3.328-8.73-0.009-12.058L372.965,164.653z" fill="#FFFFFF"/>
			<path d="M335.249,162.496c-4.523-1.382-9.276,1.212-10.624,5.717l-51.2,170.667c-1.348,4.514,1.212,9.276,5.726,10.633     c0.819,0.239,1.638,0.358,2.449,0.358c3.678,0,7.066-2.389,8.175-6.084l51.2-170.667     C342.323,168.606,339.763,163.844,335.249,162.496z" fill="#FFFFFF"/>
			<path d="M401.067,0H110.933C49.766,0,0,49.766,0,110.933v290.133C0,462.234,49.766,512,110.933,512h290.133     C462.234,512,512,462.234,512,401.067V110.933C512,49.766,462.234,0,401.067,0z M494.933,401.067     c0,51.755-42.112,93.867-93.867,93.867H110.933c-51.755,0-93.867-42.112-93.867-93.867V110.933     c0-51.755,42.112-93.867,93.867-93.867h290.133c51.755,0,93.867,42.112,93.867,93.867V401.067z" fill="#FFFFFF"/>
			<path d="M247.467,332.8h-59.733c-4.719,0-8.533,3.823-8.533,8.533s3.814,8.533,8.533,8.533h59.733     c4.719,0,8.533-3.823,8.533-8.533S252.186,332.8,247.467,332.8z" fill="#FFFFFF"/>
		</g>
	</g>
</g>
<g>
</g>
<g>
</g>
<g>
</g>
<g>
</g>
<g>
</g>
<g>
</g>
<g>
</g>
<g>
</g>
<g>
</g>
<g>
</g>
<g>
</g>
<g>
</g>
<g>
</g>
<g>
</g>
<g>
</g>
</svg>
